HIERARCHY
ROOT Hips
{
	OFFSET 0.000000 0.000000 0.000000
	CHANNELS 6 Xposition Yposition Zposition Zrotation Yrotation Xrotation 
	JOINT LHipJoint
	{
		OFFSET 0.000000 0.000000 0.000000
		CHANNELS 3 Zrotation Yrotation Xrotation
		JOINT LeftUpLeg
		{
			OFFSET 1.363060 -1.794630 0.839290
			CHANNELS 3 Zrotation Yrotation Xrotation
			JOINT LeftLeg
			{
				OFFSET 2.448110 -6.726130 0.000000
				CHANNELS 3 Zrotation Yrotation Xrotation
				JOINT LeftFoot
				{
					OFFSET 2.562200 -7.039590 0.000000
					CHANNELS 3 Zrotation Yrotation Xrotation
					JOINT LeftToeBase
					{
						OFFSET 0.157640 -0.433110 2.322550
						CHANNELS 3 Zrotation Yrotation Xrotation
						End Site
						{
							OFFSET 0.000000 0.000000 0.000000
						}
					}
				}
			}
		}
	}
	JOINT RHipJoint
	{
		OFFSET 0.000000 0.000000 0.000000
		CHANNELS 3 Zrotation Yrotation Xrotation
		JOINT RightUpLeg
		{
			OFFSET -1.305520 -1.794630 0.839290
			CHANNELS 3 Zrotation Yrotation Xrotation
			JOINT RightLeg
			{
				OFFSET -2.542530 -6.985550 0.000000
				CHANNELS 3 Zrotation Yrotation Xrotation
				JOINT RightFoot
				{
					OFFSET -2.568260 -7.056230 0.000000
					CHANNELS 3 Zrotation Yrotation Xrotation
					JOINT RightToeBase
					{
						OFFSET -0.164730 -0.452590 2.363150
						CHANNELS 3 Zrotation Yrotation Xrotation
						End Site
						{
							OFFSET 0.000000 0.000000 0.000000
						}
					}
				}
			}
		}
	}
	JOINT LowerBack
	{
		OFFSET 0.000000 0.000000 0.000000
		CHANNELS 3 Zrotation Yrotation Xrotation
		JOINT Spine
		{
			OFFSET 0.028270 2.035590 -0.193380
			CHANNELS 3 Zrotation Yrotation Xrotation
			JOINT Spine1
			{
				OFFSET 0.056720 2.048850 -0.042750
				CHANNELS 3 Zrotation Yrotation Xrotation
				JOINT Neck
				{
					OFFSET 0.000000 0.000000 0.000000
					CHANNELS 3 Zrotation Yrotation Xrotation
					JOINT Neck1
					{
						OFFSET -0.054170 1.746240 0.172020
						CHANNELS 3 Zrotation Yrotation Xrotation
						JOINT Head
						{
							OFFSET 0.104070 1.761360 -0.123970
							CHANNELS 3 Zrotation Yrotation Xrotation
							End Site
							{
								OFFSET 0.000000 0.000000 0.000000
							}
						}
					}
				}
				JOINT LeftShoulder
				{
					OFFSET 0.000000 0.000000 0.000000
					CHANNELS 3 Zrotation Yrotation Xrotation
					JOINT LeftArm
					{
						OFFSET 3.362410 1.200890 -0.311210
						CHANNELS 3 Zrotation Yrotation Xrotation
						JOINT LeftForeArm
						{
							OFFSET 4.983000 -0.000000 -0.000000
							CHANNELS 3 Zrotation Yrotation Xrotation
							JOINT LeftHand
							{
								OFFSET 3.483560 -0.000000 -0.000000
								CHANNELS 3 Zrotation Yrotation Xrotation
								JOINT LeftFingerBase
								{
									OFFSET 0.000000 0.000000 0.000000
									CHANNELS 3 Zrotation Yrotation Xrotation
									JOINT LeftHandIndex1
									{
										OFFSET 0.715260 -0.000000 -0.000000
										CHANNELS 3 Zrotation Yrotation Xrotation
										End Site
										{
											OFFSET 0.000000 0.000000 0.000000
										}
									}
								}
								JOINT LThumb
								{
									OFFSET 0.000000 0.000000 0.000000
									CHANNELS 3 Zrotation Yrotation Xrotation
									End Site
									{
										OFFSET 0.000000 0.000000 0.000000
									}
								}
							}
						}
					}
				}
				JOINT RightShoulder
				{
					OFFSET 0.000000 0.000000 0.000000
					CHANNELS 3 Zrotation Yrotation Xrotation
					JOINT RightArm
					{
						OFFSET -3.136600 1.374050 -0.404650
						CHANNELS 3 Zrotation Yrotation Xrotation
						JOINT RightForeArm
						{
							OFFSET -5.241900 -0.000000 -0.000000
							CHANNELS 3 Zrotation Yrotation Xrotation
							JOINT RightHand
							{
								OFFSET -3.444170 -0.000000 -0.000000
								CHANNELS 3 Zrotation Yrotation Xrotation
								JOINT RightFingerBase
								{
									OFFSET 0.000000 0.000000 0.000000
									CHANNELS 3 Zrotation Yrotation Xrotation
									JOINT RightHandIndex1
									{
										OFFSET -0.622530 -0.000000 -0.000000
										CHANNELS 3 Zrotation Yrotation Xrotation
										End Site
										{
											OFFSET 0.000000 0.000000 0.000000
										}
									}
								}
								JOINT RThumb
								{
									OFFSET 0.000000 0.000000 0.000000
									CHANNELS 3 Zrotation Yrotation Xrotation
									End Site
									{
										OFFSET 0.000000 0.000000 0.000000
									}
								}
							}
						}
					}
				}
			}
		}
	}
}
MOTION
Frames: 8
Frame Time: 0.008333
9.972962 17.393058 3.565079 -4.452569 -8.197469 10.436639 2.031988 -2.165073 -5.169707 -10.671851 1.821413 -43.706531 -0.459033 13.182494 28.340297 -1.442806 12.566087 23.095942 0.210100 -2.950800 -8.141700 -0.916134 -3.611028 4.740717 18.457239 1.822951 18.174168 2.735678 -1.171045 8.305309 -0.272287 -3.576481 23.034469 -0.995000 6.348200 -17.798200 0.616146 6.912336 -6.057220 0.258802 8.127747 -5.183414 4.360249 5.017150 5.875408 -11.426708 -6.775386 -13.690027 7.110118 -6.987106 7.651014 7.008700 -3.619200 10.317400 -1.546808 -5.331146 -0.774077 -81.253246 24.561981 2.311185 2.684020 -10.287012 -0.725992 0.199695 1.796269 23.797454 10.635321 -24.019458 -4.904100 -7.125000 0.000000 0.000000 -11.217100 4.249800 10.563400 -0.617874 8.270373 1.483939 65.910822 10.285465 46.990289 -32.177952 36.348628 -14.129208 2.196534 2.702843 -29.503140 -31.356679 -21.126360 14.382400 7.125000 0.000000 0.000000 -6.361500 -55.819000 1.693600
10.000882 17.400142 3.729264 -4.014726 -8.149813 10.325169 1.975014 -2.142836 -5.055979 -11.230266 1.702299 -43.668883 -0.312361 13.433070 29.235052 -1.396569 12.014669 22.411732 0.146565 -2.435526 -6.712391 -0.833004 -3.549943 4.706944 17.895385 1.822733 16.969001 2.390800 -2.269033 11.131119 -0.283644 -3.985224 24.103266 -1.164362 6.838543 -19.242327 0.164295 6.856022 -5.923587 0.232434 8.116860 -5.205743 4.368044 4.994583 5.664571 -11.408329 -6.838290 -13.615071 7.098195 -7.081838 7.675876 6.972449 -3.669061 10.369233 -1.555082 -5.367351 -0.768513 -81.337967 24.353178 1.353050 2.588483 -10.086577 -0.711318 0.239931 1.870742 25.134132 11.258951 -24.654911 -5.335996 -7.125000 0.000000 0.000000 -10.855607 3.470403 10.366182 -0.646093 8.280618 1.462704 66.160285 9.544889 47.391036 -32.299946 36.492899 -14.218658 2.227724 2.670852 -30.446890 -32.440526 -20.450201 14.464060 7.125000 0.000000 0.000000 -7.686317 -55.169343 1.915876
10.029663 17.409692 3.890687 -3.583634 -8.129144 10.214820 1.924280 -2.119717 -4.946056 -11.768752 1.598185 -43.633069 -0.171657 13.664352 30.072071 -1.365660 11.519430 21.710855 0.085533 -1.803715 -4.965453 -0.761475 -3.491526 4.667695 17.280526 1.629728 15.731590 2.019110 -3.298694 13.823853 -0.327826 -4.331098 25.279425 -1.277509 7.162660 -20.198302 -0.269714 6.813341 -5.741708 0.203750 8.120805 -5.231394 4.364755 4.981707 5.414127 -11.417880 -6.897583 -13.513634 7.112904 -7.161917 7.674137 6.967964 -3.711226 10.405971 -1.572389 -5.411917 -0.762760 -81.422174 24.122696 0.546523 2.504541 -9.897728 -0.699224 0.280765 1.928029 26.236421 11.721891 -25.141545 -5.661390 -7.125000 0.000000 0.000000 -10.592702 2.870802 10.227164 -0.672127 8.308187 1.442661 66.385025 8.853376 47.517168 -32.277627 36.525512 -14.221877 2.227722 2.695359 -30.611954 -32.673416 -20.637050 14.701095 7.125000 0.000000 0.000000 -7.941326 -55.437764 2.022893
10.059596 17.422540 4.048412 -3.161578 -8.144597 10.105970 1.881899 -2.095419 -4.841228 -12.280563 1.514147 -43.599712 -0.038939 13.869808 30.831815 -1.355266 11.099386 20.987669 0.027849 -1.015923 -2.793379 -0.705473 -3.436681 4.621117 16.594722 1.178685 14.451023 1.611532 -4.236903 16.338470 -0.415941 -4.592822 26.599286 -1.315414 7.264290 -20.500903 -0.679841 6.788906 -5.495254 0.171964 8.144601 -5.261491 4.346629 4.981801 5.110672 -11.464812 -6.952040 -13.376755 7.163257 -7.222383 7.636791 7.005995 -3.743088 10.422507 -1.601784 -5.467676 -0.756754 -81.505692 23.863201 -0.057079 2.436120 -9.724383 -0.690584 0.322398 1.962313 27.024989 11.969754 -25.428990 -5.844236 -7.125000 0.000000 0.000000 -10.461753 2.511853 10.166046 -0.695235 8.358944 1.424214 66.576674 8.227531 47.275737 -32.062150 36.408676 -14.109680 2.185970 2.795487 -29.734776 -31.767331 -21.979000 15.146092 7.125000 0.000000 0.000000 -6.764439 -56.934995 1.975639
10.089233 17.436874 4.204534 -2.668244 -8.141645 9.965649 1.825304 -2.073062 -4.730078 -12.878099 1.463664 -43.492495 0.052242 14.016955 31.470038 -1.283328 10.545848 20.325511 0.009546 -0.289486 -0.795799 -0.666023 -3.382319 4.535398 15.819341 0.524055 13.113698 1.110092 -5.164988 18.880130 -0.388125 -5.208845 27.468012 -1.100988 6.637703 -18.657361 -1.140015 6.744467 -5.319942 0.137760 8.141730 -5.260324 4.352334 4.959571 4.996470 -11.510089 -6.986470 -13.287642 7.193316 -7.256865 7.559009 7.033094 -3.756403 10.373281 -1.636072 -5.501409 -0.735705 -81.569647 23.467554 -0.513323 2.393885 -9.606618 -0.687389 0.360243 1.985136 27.484980 12.036400 -25.699018 -5.931947 -7.125000 0.000000 0.000000 -10.445248 2.202837 10.208982 -0.708969 8.374898 1.425731 66.702083 7.797363 47.460297 -31.836637 36.284494 -13.966039 2.187267 2.827675 -29.836444 -31.830588 -22.196549 15.334462 7.125000 0.000000 0.000000 -6.843439 -57.218114 2.055068
10.118329 17.450280 4.356140 -2.170604 -8.134975 9.803555 1.756153 -2.049655 -4.612398 -13.484856 1.419363 -43.313908 0.126296 14.132205 32.031271 -1.213451 10.017273 19.673161 0.001236 0.226447 0.622229 -0.634317 -3.327166 4.433328 15.070186 -0.095342 11.815696 0.572164 -6.085208 21.426271 -0.319213 -5.951271 28.174498 -0.866205 5.920893 -16.558882 -1.598749 6.695705 -5.124029 0.105110 8.130298 -5.251218 4.363499 4.930348 4.918085 -11.540816 -7.007407 -13.221464 7.195492 -7.275362 7.484840 7.036087 -3.762621 10.317226 -1.665530 -5.536426 -0.714505 -81.648004 23.031745 -0.854858 2.384149 -9.542589 -0.691190 0.396524 1.990694 27.729178 11.942827 -25.848970 -5.910524 -7.125000 0.000000 0.000000 -10.523656 2.048615 10.317872 -0.716213 8.384437 1.430307 66.801208 7.417371 47.737101 -31.611523 36.149557 -13.802101 2.194112 2.820902 -30.041129 -31.924527 -21.985615 15.250819 7.125000 0.000000 0.000000 -6.988792 -56.979565 2.060309
10.146179 17.460697 4.496989 -1.692628 -8.126773 9.599772 1.661269 -2.022756 -4.480876 -14.078209 1.376341 -42.986089 0.174755 14.191614 32.449473 -1.175201 9.609245 19.019490 0.001363 0.235096 0.646015 -0.615139 -3.269798 4.306600 14.425938 -0.538095 10.641721 -0.017996 -6.989831 23.972170 -0.195863 -6.862129 28.663247 -0.688067 5.287772 -14.734818 -2.032367 6.644564 -4.845378 0.077433 8.108602 -5.235402 4.378285 4.892976 4.849302 -11.535370 -7.002731 -13.192930 7.135694 -7.264485 7.437180 6.982664 -3.758805 10.272071 -1.680650 -5.584145 -0.699377 -81.771257 22.552533 -0.968835 2.445565 -9.590930 -0.710390 0.430468 1.957404 27.567319 11.520856 -25.702019 -5.653269 -7.125000 0.000000 0.000000 -10.793568 2.265359 10.549306 -0.711030 8.392640 1.434073 66.862120 7.080627 48.064988 -31.391722 35.990504 -13.600203 2.196551 2.744509 -30.087048 -31.680411 -21.170871 14.587743 7.125000 0.000000 0.000000 -6.763590 -55.939478 1.823151
10.172648 17.478024 4.626932 -1.203940 -8.157192 9.455542 1.560393 -2.005321 -4.354885 -14.638273 1.262915 -42.643485 0.200008 14.213189 32.717549 -1.215552 9.459246 18.346685 0.001219 0.035970 0.098892 -0.599473 -3.193439 4.173810 13.835376 -0.731009 9.419154 -0.616896 -7.857871 26.530925 -0.174238 -7.346854 29.172142 -0.730582 5.446846 -15.191046 -2.491516 6.614767 -4.529450 0.045004 8.109691 -5.237150 4.379575 4.871225 4.670951 -11.522027 -7.011475 -13.119955 7.052730 -7.274443 7.397036 6.906377 -3.770036 10.239524 -1.691160 -5.653630 -0.694373 -81.901890 22.089986 -0.617336 2.552698 -9.706984 -0.736365 0.428505 1.930347 26.884359 11.382192 -25.479961 -5.526472 -7.125000 0.000000 0.000000 -10.881641 2.523630 10.586973 -0.712461 8.420888 1.430857 66.965007 6.663844 48.284079 -31.192902 35.854180 -13.444010 2.189687 2.732847 -29.975539 -31.387062 -21.066145 14.371172 7.125000 0.000000 0.000000 -6.423972 -55.761267 1.700364
